<svg width="16" height="17" viewBox="0 0 16 17" fill="none" xmlns="http://www.w3.org/2000/svg">
<path fill-rule="evenodd" clip-rule="evenodd" d="M11.624 4.06651H5.22399C5.11381 4.07313 5.00579 4.03393 4.9255 3.95819C4.84521 3.88244 4.79979 3.77689 4.79999 3.66651C4.748 2.90857 5.16318 2.19547 5.84799 1.86651C6.04056 1.77236 6.24513 1.70506 6.45599 1.66651C6.61871 0.704292 7.45211 0 8.42799 0C9.40386 0 10.2373 0.704292 10.4 1.66651C10.6101 1.71833 10.8121 1.7991 11 1.90651C11.6629 2.23526 12.0658 2.92774 12.024 3.66651C12.024 3.88742 11.8449 4.06651 11.624 4.06651ZM6.82387 2.46651C6.60116 2.4773 6.38317 2.53453 6.18387 2.63451C5.92868 2.75978 5.74146 2.99088 5.67187 3.26651H11.1999C11.1198 2.98124 10.9134 2.74837 10.6399 2.63451C10.4406 2.53453 10.2226 2.4773 9.99987 2.46651C9.77896 2.46651 9.59987 2.28742 9.59987 2.06651C9.59987 1.40377 9.06261 0.866511 8.39987 0.866511C7.73713 0.866511 7.19987 1.40377 7.19987 2.06651C7.20025 2.27838 7.03536 2.4538 6.82387 2.46651ZM8.14401 1.78651C8.21786 1.71114 8.3185 1.66801 8.42401 1.66651C8.5297 1.66713 8.63067 1.7104 8.70401 1.78651C8.81605 1.90079 8.8492 2.07086 8.78826 2.21885C8.72732 2.36684 8.58404 2.46426 8.42401 2.46651C8.31004 2.47268 8.19904 2.42886 8.12001 2.34651C8.04536 2.27217 8.00236 2.17184 8.00001 2.06651C8.00677 1.95715 8.05899 1.85562 8.14401 1.78651ZM1.60001 16.0665H15.2V2.6905H12.8V3.4905H14.448V15.2665H2.40001V3.4905H3.84801V2.6905H1.60001V16.0665ZM9.60001 12.8665H4.80001V12.0665H9.60001V12.8665ZM4.80001 10.4665H9.60001V9.66651H4.80001V10.4665ZM11.2 8.06651H4.80001V7.26651H11.2V8.06651Z" fill="#333333"/>
</svg>
